<svg width="20" height="22" viewBox="0 0 20 22" fill="none" xmlns="http://www.w3.org/2000/svg">
<path d="M13 6H10M7 12H10M10 6H9.37377C8.61506 6 8 6.61506 8 7.37377V7.37377C8 8.02863 8.46222 8.59244 9.10436 8.72087L11.8956 9.27913C12.5378 9.40756 13 9.97137 13 10.6262V10.6262C13 11.3849 12.3849 12 11.6262 12H10M10 6V4M10 12V14M19 19.5V4C19 2.34315 17.6569 1 16 1H4C2.34315 1 1 2.34315 1 4V14C1 15.6569 2.34315 17 4 17H13.5279C13.8384 17 14.1446 17.0723 14.4223 17.2111L19 19.5Z" stroke="black" stroke-width="2"/>
</svg>
