<svg width="27" height="28" viewBox="0 0 27 28" fill="none" xmlns="http://www.w3.org/2000/svg">
<path d="M17.0795 7.72728H13.2272M9.37496 15.4318H13.2272M13.2272 7.72728H12.4231C11.4488 7.72728 10.659 8.51707 10.659 9.49133V9.49133C10.659 10.3322 11.2526 11.0562 12.0771 11.2211L15.6614 11.938C16.486 12.1029 17.0795 12.8269 17.0795 13.6678V13.6678C17.0795 14.642 16.2897 15.4318 15.3154 15.4318H13.2272M13.2272 7.72728V5.1591M13.2272 15.4318V18M24.784 25.0625V5.1591C24.784 3.03155 23.0593 1.30682 20.9318 1.30682H5.52268C3.39513 1.30682 1.67041 3.03154 1.67041 5.1591V18C1.67041 20.1276 3.39513 21.8523 5.52268 21.8523H17.7573C18.156 21.8523 18.5492 21.9451 18.9059 22.1234L24.784 25.0625Z" stroke="white" stroke-width="2.56818"/>
</svg>
