<svg width="22" height="22" viewBox="0 0 22 22" fill="none" xmlns="http://www.w3.org/2000/svg">
<path d="M11.6108 14.6733H9.77833C9.78489 14.0926 9.84072 13.6177 9.94581 13.2486C10.0575 12.8736 10.2381 12.5318 10.4877 12.2232C10.7373 11.9147 11.069 11.5638 11.4828 11.1706C11.7849 10.8863 12.0608 10.6201 12.3103 10.3721C12.5665 10.118 12.7734 9.84574 12.931 9.55535C13.0887 9.25892 13.1675 8.90502 13.1675 8.49365C13.1675 8.07623 13.0854 7.71627 12.9212 7.41379C12.7635 7.11131 12.5271 6.8784 12.2118 6.71506C11.9031 6.55172 11.5189 6.47005 11.0591 6.47005C10.6782 6.47005 10.3169 6.53358 9.97537 6.66062C9.63383 6.78766 9.35796 6.98427 9.14778 7.25045C8.9376 7.51059 8.82923 7.85239 8.82266 8.27586H7C7.01314 7.59226 7.19704 7.00544 7.55172 6.51543C7.91297 6.02541 8.39901 5.65033 9.00985 5.3902C9.62069 5.13007 10.3038 5 11.0591 5C11.8933 5 12.6026 5.13914 13.1872 5.41742C13.7783 5.6957 14.2282 6.09498 14.5369 6.61524C14.8456 7.12946 15 7.74047 15 8.44828C15 8.99274 14.8785 9.49486 14.6355 9.95463C14.399 10.4083 14.0936 10.8348 13.7192 11.2341C13.3448 11.6334 12.9475 12.0145 12.5271 12.3775C12.1658 12.686 11.9228 13.0339 11.798 13.4211C11.6732 13.8082 11.6108 14.2257 11.6108 14.6733Z" fill="white"/>
<path d="M9.79212 15.6062V17H11.6108V15.6062H9.79212Z" fill="white"/>
<circle cx="11" cy="11" r="10" stroke="white" stroke-width="2"/>
</svg>
